<mxfile host="65bd71144e">
    <diagram id="pST5sZ1mUaMK9CDZLsie" name="Page-1">
        <mxGraphModel dx="1458" dy="454" grid="1" gridSize="10" guides="1" tooltips="1" connect="1" arrows="1" fold="1" page="1" pageScale="1" pageWidth="1169" pageHeight="827" math="0" shadow="0">
            <root>
                <mxCell id="0"/>
                <mxCell id="1" parent="0"/>
                <mxCell id="I4osUfgk0sCcd2gDG21r-2" value="&lt;span&gt;Raspberry PI&lt;/span&gt;" style="rounded=0;whiteSpace=wrap;html=1;dashed=1;align=center;verticalAlign=top;" parent="1" vertex="1">
                    <mxGeometry x="460" y="140" width="340" height="270" as="geometry"/>
                </mxCell>
                <mxCell id="RDswXwh-rRWbe7VF82m2-1" value="&lt;span&gt;Docker&lt;/span&gt;" style="rounded=0;whiteSpace=wrap;html=1;dashed=1;align=center;verticalAlign=top;" parent="1" vertex="1">
                    <mxGeometry x="480" y="170" width="300" height="230" as="geometry"/>
                </mxCell>
                <mxCell id="I4osUfgk0sCcd2gDG21r-7" style="edgeStyle=orthogonalEdgeStyle;rounded=0;orthogonalLoop=1;jettySize=auto;html=1;entryX=0;entryY=0.5;entryDx=0;entryDy=0;entryPerimeter=0;" parent="1" source="I4osUfgk0sCcd2gDG21r-3" target="I4osUfgk0sCcd2gDG21r-6" edge="1">
                    <mxGeometry relative="1" as="geometry"/>
                </mxCell>
                <mxCell id="I4osUfgk0sCcd2gDG21r-3" value="InfluxDB" style="shape=cylinder3;whiteSpace=wrap;html=1;boundedLbl=1;backgroundOutline=1;size=15;" parent="1" vertex="1">
                    <mxGeometry x="705" y="240" width="60" height="70" as="geometry"/>
                </mxCell>
                <mxCell id="I4osUfgk0sCcd2gDG21r-32" style="edgeStyle=none;rounded=0;orthogonalLoop=1;jettySize=auto;html=1;entryX=0;entryY=0.5;entryDx=0;entryDy=0;entryPerimeter=0;" parent="1" source="I4osUfgk0sCcd2gDG21r-4" edge="1">
                    <mxGeometry relative="1" as="geometry">
                        <mxPoint x="870" y="360" as="targetPoint"/>
                    </mxGeometry>
                </mxCell>
                <mxCell id="10" style="edgeStyle=none;html=1;entryX=0.556;entryY=1.125;entryDx=0;entryDy=0;entryPerimeter=0;dashed=1;endArrow=classic;endFill=1;" parent="1" source="I4osUfgk0sCcd2gDG21r-4" target="I4osUfgk0sCcd2gDG21r-30" edge="1">
                    <mxGeometry relative="1" as="geometry">
                        <Array as="points">
                            <mxPoint x="735" y="430"/>
                            <mxPoint x="1048" y="430"/>
                        </Array>
                    </mxGeometry>
                </mxCell>
                <mxCell id="11" value="Hälytykset Discordiin" style="edgeLabel;html=1;align=center;verticalAlign=middle;resizable=0;points=[];" parent="10" vertex="1" connectable="0">
                    <mxGeometry x="0.2365" y="1" relative="1" as="geometry">
                        <mxPoint x="-18" y="-9" as="offset"/>
                    </mxGeometry>
                </mxCell>
                <mxCell id="I4osUfgk0sCcd2gDG21r-4" value="Home&lt;br&gt;Assistant" style="rounded=1;whiteSpace=wrap;html=1;align=center;verticalAlign=middle;" parent="1" vertex="1">
                    <mxGeometry x="700" y="330" width="70" height="60" as="geometry"/>
                </mxCell>
                <mxCell id="I4osUfgk0sCcd2gDG21r-6" value="Backup" style="shape=cylinder3;whiteSpace=wrap;html=1;boundedLbl=1;backgroundOutline=1;size=15;" parent="1" vertex="1">
                    <mxGeometry x="880" y="250" width="60" height="50" as="geometry"/>
                </mxCell>
                <mxCell id="I4osUfgk0sCcd2gDG21r-18" style="edgeStyle=none;rounded=0;orthogonalLoop=1;jettySize=auto;html=1;entryX=0;entryY=0;entryDx=0;entryDy=52.5;entryPerimeter=0;exitX=1;exitY=0.25;exitDx=0;exitDy=0;" parent="1" source="I4osUfgk0sCcd2gDG21r-8" target="I4osUfgk0sCcd2gDG21r-3" edge="1">
                    <mxGeometry relative="1" as="geometry"/>
                </mxCell>
                <mxCell id="15" style="edgeStyle=none;html=1;entryX=0;entryY=0;entryDx=0;entryDy=20;entryPerimeter=0;" parent="1" source="I4osUfgk0sCcd2gDG21r-8" target="14" edge="1">
                    <mxGeometry relative="1" as="geometry"/>
                </mxCell>
                <mxCell id="I4osUfgk0sCcd2gDG21r-8" value="PulseReader" style="rounded=0;whiteSpace=wrap;html=1;align=center;verticalAlign=middle;" parent="1" vertex="1">
                    <mxGeometry x="500" y="332.22" width="85" height="50" as="geometry"/>
                </mxCell>
                <mxCell id="I4osUfgk0sCcd2gDG21r-10" style="rounded=0;orthogonalLoop=1;jettySize=auto;html=1;entryX=0;entryY=0.5;entryDx=0;entryDy=0;" parent="1" source="I4osUfgk0sCcd2gDG21r-9" target="I4osUfgk0sCcd2gDG21r-37" edge="1">
                    <mxGeometry relative="1" as="geometry">
                        <mxPoint x="350" y="225" as="targetPoint"/>
                    </mxGeometry>
                </mxCell>
                <mxCell id="I4osUfgk0sCcd2gDG21r-11" value="Bluetooth" style="edgeLabel;html=1;align=center;verticalAlign=middle;resizable=0;points=[];" parent="I4osUfgk0sCcd2gDG21r-10" vertex="1" connectable="0">
                    <mxGeometry x="-0.4445" y="-1" relative="1" as="geometry">
                        <mxPoint x="17" y="-12" as="offset"/>
                    </mxGeometry>
                </mxCell>
                <mxCell id="I4osUfgk0sCcd2gDG21r-9" value="Ruuvitag" style="shape=cylinder3;whiteSpace=wrap;html=1;boundedLbl=1;backgroundOutline=1;size=15;align=center;verticalAlign=middle;" parent="1" vertex="1">
                    <mxGeometry x="320" y="200" width="60" height="50" as="geometry"/>
                </mxCell>
                <mxCell id="I4osUfgk0sCcd2gDG21r-12" value="Sähkömittari&lt;br&gt;LED-ilmaisimella" style="rounded=0;whiteSpace=wrap;html=1;align=center;verticalAlign=middle;" parent="1" vertex="1">
                    <mxGeometry x="200" y="337.78" width="100" height="44.44" as="geometry"/>
                </mxCell>
                <mxCell id="I4osUfgk0sCcd2gDG21r-13" value="Ruuvitag" style="shape=cylinder3;whiteSpace=wrap;html=1;boundedLbl=1;backgroundOutline=1;size=15;align=center;verticalAlign=middle;" parent="1" vertex="1">
                    <mxGeometry x="250" y="200" width="60" height="50" as="geometry"/>
                </mxCell>
                <mxCell id="I4osUfgk0sCcd2gDG21r-14" value="Ruuvitag" style="shape=cylinder3;whiteSpace=wrap;html=1;boundedLbl=1;backgroundOutline=1;size=15;align=center;verticalAlign=middle;" parent="1" vertex="1">
                    <mxGeometry x="180" y="200" width="60" height="50" as="geometry"/>
                </mxCell>
                <mxCell id="I4osUfgk0sCcd2gDG21r-16" style="rounded=0;orthogonalLoop=1;jettySize=auto;html=1;entryX=0;entryY=0.5;entryDx=0;entryDy=0;exitX=1;exitY=0.5;exitDx=0;exitDy=0;exitPerimeter=0;" parent="1" source="I4osUfgk0sCcd2gDG21r-20" target="I4osUfgk0sCcd2gDG21r-8" edge="1">
                    <mxGeometry relative="1" as="geometry">
                        <mxPoint x="420" y="392.22" as="targetPoint"/>
                        <mxPoint x="240" y="352.22" as="sourcePoint"/>
                    </mxGeometry>
                </mxCell>
                <mxCell id="I4osUfgk0sCcd2gDG21r-17" value="GPIO" style="edgeLabel;html=1;align=center;verticalAlign=middle;resizable=0;points=[];" parent="I4osUfgk0sCcd2gDG21r-16" vertex="1" connectable="0">
                    <mxGeometry x="-0.4445" y="-1" relative="1" as="geometry">
                        <mxPoint x="41" y="13" as="offset"/>
                    </mxGeometry>
                </mxCell>
                <mxCell id="I4osUfgk0sCcd2gDG21r-20" value="LM393 Valosensori" style="points=[[0,0.5,0],[0.19,0.02,0],[0.59,0,0],[0.985,0.02,0],[1,0.5,0],[0.985,0.98,0],[0.59,1,0],[0.19,0.98,0]];verticalLabelPosition=bottom;html=1;verticalAlign=top;aspect=fixed;align=left;pointerEvents=1;shape=mxgraph.cisco19.camera;fillColor=#005073;strokeColor=none;" parent="1" vertex="1">
                    <mxGeometry x="310" y="344.44000000000005" width="50" height="27.78" as="geometry"/>
                </mxCell>
                <mxCell id="I4osUfgk0sCcd2gDG21r-21" style="edgeStyle=orthogonalEdgeStyle;rounded=0;orthogonalLoop=1;jettySize=auto;html=1;entryX=0.5;entryY=0;entryDx=0;entryDy=0;" parent="1" target="I4osUfgk0sCcd2gDG21r-4" edge="1">
                    <mxGeometry relative="1" as="geometry">
                        <mxPoint x="735" y="310" as="sourcePoint"/>
                        <mxPoint x="790" y="280" as="targetPoint"/>
                    </mxGeometry>
                </mxCell>
                <mxCell id="I4osUfgk0sCcd2gDG21r-26" value="" style="aspect=fixed;html=1;points=[];align=center;image;fontSize=12;image=img/lib/mscae/Person.svg;" parent="1" vertex="1">
                    <mxGeometry x="1026.5" y="330" width="37" height="50" as="geometry"/>
                </mxCell>
                <mxCell id="I4osUfgk0sCcd2gDG21r-27" value="Ouman EH-203&lt;br&gt;Lämmönvaihdin" style="rounded=0;whiteSpace=wrap;html=1;align=center;verticalAlign=middle;" parent="1" vertex="1">
                    <mxGeometry x="195" y="267.5" width="100" height="45" as="geometry"/>
                </mxCell>
                <mxCell id="I4osUfgk0sCcd2gDG21r-28" style="rounded=0;orthogonalLoop=1;jettySize=auto;html=1;exitX=1;exitY=0.5;exitDx=0;exitDy=0;entryX=0;entryY=0.5;entryDx=0;entryDy=0;" parent="1" source="I4osUfgk0sCcd2gDG21r-27" target="I4osUfgk0sCcd2gDG21r-35" edge="1">
                    <mxGeometry relative="1" as="geometry">
                        <mxPoint x="520.98" y="100" as="targetPoint"/>
                        <mxPoint x="230.98" y="117.22000000000003" as="sourcePoint"/>
                    </mxGeometry>
                </mxCell>
                <mxCell id="I4osUfgk0sCcd2gDG21r-29" value="RS232-USB" style="edgeLabel;html=1;align=center;verticalAlign=middle;resizable=0;points=[];" parent="I4osUfgk0sCcd2gDG21r-28" vertex="1" connectable="0">
                    <mxGeometry x="-0.4445" y="-1" relative="1" as="geometry">
                        <mxPoint x="68" y="10" as="offset"/>
                    </mxGeometry>
                </mxCell>
                <mxCell id="I4osUfgk0sCcd2gDG21r-30" value="Käyttäjä" style="text;html=1;align=center;verticalAlign=middle;resizable=0;points=[];autosize=1;strokeColor=none;" parent="1" vertex="1">
                    <mxGeometry x="1015" y="385" width="60" height="20" as="geometry"/>
                </mxCell>
                <mxCell id="I4osUfgk0sCcd2gDG21r-36" style="edgeStyle=none;rounded=0;orthogonalLoop=1;jettySize=auto;html=1;entryX=0;entryY=0;entryDx=0;entryDy=45;entryPerimeter=0;" parent="1" source="I4osUfgk0sCcd2gDG21r-35" target="I4osUfgk0sCcd2gDG21r-3" edge="1">
                    <mxGeometry relative="1" as="geometry"/>
                </mxCell>
                <mxCell id="I4osUfgk0sCcd2gDG21r-35" value="taloLogger" style="rounded=0;whiteSpace=wrap;html=1;align=center;verticalAlign=middle;" parent="1" vertex="1">
                    <mxGeometry x="500" y="267.5" width="85" height="40" as="geometry"/>
                </mxCell>
                <mxCell id="I4osUfgk0sCcd2gDG21r-37" value="Ruuvi&lt;br&gt;Collector" style="rounded=0;whiteSpace=wrap;html=1;align=center;verticalAlign=middle;" parent="1" vertex="1">
                    <mxGeometry x="500" y="205" width="85" height="40" as="geometry"/>
                </mxCell>
                <mxCell id="I4osUfgk0sCcd2gDG21r-38" style="edgeStyle=none;rounded=0;orthogonalLoop=1;jettySize=auto;html=1;entryX=0;entryY=0;entryDx=0;entryDy=27.5;entryPerimeter=0;exitX=1;exitY=0.75;exitDx=0;exitDy=0;" parent="1" source="I4osUfgk0sCcd2gDG21r-37" target="I4osUfgk0sCcd2gDG21r-3" edge="1">
                    <mxGeometry relative="1" as="geometry">
                        <mxPoint x="595" y="302.5" as="sourcePoint"/>
                        <mxPoint x="630" y="280" as="targetPoint"/>
                    </mxGeometry>
                </mxCell>
                <mxCell id="I4osUfgk0sCcd2gDG21r-39" style="edgeStyle=none;rounded=0;orthogonalLoop=1;jettySize=auto;html=1;exitX=0.5;exitY=1;exitDx=0;exitDy=0;" parent="1" source="I4osUfgk0sCcd2gDG21r-2" target="I4osUfgk0sCcd2gDG21r-2" edge="1">
                    <mxGeometry relative="1" as="geometry"/>
                </mxCell>
                <mxCell id="2" value="Telegraf" style="rounded=0;whiteSpace=wrap;html=1;align=center;verticalAlign=middle;" parent="1" vertex="1">
                    <mxGeometry x="700" y="190" width="70" height="30" as="geometry"/>
                </mxCell>
                <mxCell id="3" style="edgeStyle=none;rounded=0;orthogonalLoop=1;jettySize=auto;html=1;entryX=0.5;entryY=0;entryDx=0;entryDy=0;entryPerimeter=0;exitX=0.5;exitY=1;exitDx=0;exitDy=0;" parent="1" source="2" target="I4osUfgk0sCcd2gDG21r-3" edge="1">
                    <mxGeometry relative="1" as="geometry">
                        <mxPoint x="595" y="260" as="sourcePoint"/>
                        <mxPoint x="630" y="277.5" as="targetPoint"/>
                    </mxGeometry>
                </mxCell>
                <mxCell id="5" value="Huonelämmöt&lt;br&gt;Huonekosteudet&lt;br&gt;Jääkaappi/Pakastin" style="text;html=1;align=center;verticalAlign=middle;resizable=0;points=[];autosize=1;strokeColor=none;" parent="1" vertex="1">
                    <mxGeometry x="60" y="205" width="120" height="50" as="geometry"/>
                </mxCell>
                <mxCell id="6" value="Kulutusseuranta &lt;br&gt;minuuttitasolla ja &lt;br&gt;reaaliajassa&amp;nbsp;" style="text;html=1;align=center;verticalAlign=middle;resizable=0;points=[];autosize=1;strokeColor=none;" parent="1" vertex="1">
                    <mxGeometry x="70" y="337.78" width="100" height="50" as="geometry"/>
                </mxCell>
                <mxCell id="7" value="Lämmitys- ja &lt;br&gt;käyttövesikierron&lt;br&gt;lämpötilat.&lt;br&gt;Ulkolämpötila" style="text;html=1;align=center;verticalAlign=middle;resizable=0;points=[];autosize=1;strokeColor=none;" parent="1" vertex="1">
                    <mxGeometry x="60" y="260" width="110" height="60" as="geometry"/>
                </mxCell>
                <mxCell id="9" style="edgeStyle=none;html=1;entryX=1;entryY=0.5;entryDx=0;entryDy=0;dashed=1;endArrow=none;endFill=0;exitX=0.025;exitY=0.383;exitDx=0;exitDy=0;exitPerimeter=0;" parent="1" source="8" target="2" edge="1">
                    <mxGeometry relative="1" as="geometry"/>
                </mxCell>
                <mxCell id="8" value="CPU, Muisti, &lt;br&gt;Levynkäyttö,&lt;br&gt;Lämpötila&lt;br&gt;yms." style="text;html=1;align=center;verticalAlign=middle;resizable=0;points=[];autosize=1;strokeColor=none;" parent="1" vertex="1">
                    <mxGeometry x="820" y="170" width="80" height="60" as="geometry"/>
                </mxCell>
                <mxCell id="13" style="edgeStyle=none;html=1;entryX=0.014;entryY=0.6;entryDx=0;entryDy=0;entryPerimeter=0;" parent="1" target="I4osUfgk0sCcd2gDG21r-26" edge="1">
                    <mxGeometry relative="1" as="geometry">
                        <mxPoint x="950" y="360" as="sourcePoint"/>
                    </mxGeometry>
                </mxCell>
                <mxCell id="16" style="edgeStyle=none;html=1;exitX=1;exitY=0;exitDx=0;exitDy=20;exitPerimeter=0;entryX=0.002;entryY=0.471;entryDx=0;entryDy=0;entryPerimeter=0;" parent="1" source="14" target="I4osUfgk0sCcd2gDG21r-4" edge="1">
                    <mxGeometry relative="1" as="geometry">
                        <mxPoint x="670" y="354" as="sourcePoint"/>
                        <mxPoint x="700" y="353" as="targetPoint"/>
                    </mxGeometry>
                </mxCell>
                <mxCell id="14" value="MQTT" style="shape=cylinder3;whiteSpace=wrap;html=1;boundedLbl=1;backgroundOutline=1;size=15;" parent="1" vertex="1">
                    <mxGeometry x="620" y="337.78" width="45" height="50" as="geometry"/>
                </mxCell>
                <mxCell id="17" value="HA Cloud" style="ellipse;shape=cloud;whiteSpace=wrap;html=1;" vertex="1" parent="1">
                    <mxGeometry x="860" y="328.33" width="95" height="60" as="geometry"/>
                </mxCell>
                <mxCell id="18" value="TODO: InfluxDB rooli?&lt;br&gt;&lt;div style=&quot;text-align: left&quot;&gt;&lt;span&gt;TODO: Tallennuspaikat?&lt;/span&gt;&lt;/div&gt;&lt;div style=&quot;text-align: left&quot;&gt;&lt;span&gt;TODO: HA Backup?&lt;/span&gt;&lt;/div&gt;" style="text;html=1;align=center;verticalAlign=middle;resizable=0;points=[];autosize=1;strokeColor=none;fillColor=none;" vertex="1" parent="1">
                    <mxGeometry x="90" y="130" width="150" height="50" as="geometry"/>
                </mxCell>
            </root>
        </mxGraphModel>
    </diagram>
</mxfile>